<?xml version="1.0" encoding="UTF-8" standalone="no"?>
<!-- Created with Inkscape (http://www.inkscape.org/) -->

<svg
   version="1.1"
   id="svg1"
   width="265"
   height="265"
   viewBox="0 0 265 265"
   sodipodi:docname="logo.svg"
   inkscape:version="1.4.2 (f4327f4, 2025-05-13)"
   xmlns:inkscape="http://www.inkscape.org/namespaces/inkscape"
   xmlns:sodipodi="http://sodipodi.sourceforge.net/DTD/sodipodi-0.dtd"
   xmlns="http://www.w3.org/2000/svg"
   xmlns:svg="http://www.w3.org/2000/svg">
  <defs
     id="defs1" />
  <sodipodi:namedview
     id="namedview1"
     pagecolor="#ffffff"
     bordercolor="#000000"
     borderopacity="0.25"
     inkscape:showpageshadow="2"
     inkscape:pageopacity="0.0"
     inkscape:pagecheckerboard="0"
     inkscape:deskcolor="#d1d1d1"
     inkscape:zoom="3.2264151"
     inkscape:cx="132.5"
     inkscape:cy="132.5"
     inkscape:window-width="1920"
     inkscape:window-height="1057"
     inkscape:window-x="-8"
     inkscape:window-y="-8"
     inkscape:window-maximized="1"
     inkscape:current-layer="g1" />
  <g
     inkscape:groupmode="layer"
     inkscape:label="Image"
     id="g1">
    <path
       style="fill:#000000"
       d="M 113.72767,263.15168 C 70.091058,256.89238 31.867628,228.86676 13.975258,190.01268 5.2647722,171.09747 1.6990502,154.47174 1.7734552,133.11989 1.8504152,111.03489 5.8794282,93.700772 15.305418,74.901014 38.340938,28.957622 86.475188,0.5953478 137.5,2.8999689 c 25.61192,1.1568054 48.10838,8.4663661 70,22.7444311 8.86487,5.781811 28.21049,24.552037 33.43373,32.439316 9.26608,13.992105 16.94609,31.836072 20.67468,48.036174 2.5522,11.08888 2.59502,40.22216 0.0776,52.77488 -3.62004,18.0506 -12.34554,37.70443 -23.13153,52.10282 -7.04625,9.40615 -21.11564,23.06848 -31.05446,30.15597 -14.0762,10.03791 -36.25511,18.9971 -53.01718,21.41634 -12.56024,1.8128 -30.39797,2.06743 -40.75515,0.58178 z M 156.5,248.13929 c 38.43069,-8.12407 70.33124,-34.70318 84.83722,-70.68523 12.0069,-29.7831 11.14542,-65.8591 -2.24495,-94.010926 -5.94698,-12.502901 -11.16906,-19.958705 -21.35061,-30.483262 -31.37898,-32.4361 -77.9572,-44.2744807 -120.912602,-30.7313 -9.97633,3.145385 -25.01856,10.275671 -24.26161,11.500437 0.60374,0.976876 15.02784,13.559695 31.836982,27.772886 6.10256,5.160107 14.72802,11.773781 19.16768,14.697053 l 8.0721,5.31504 12.58826,-0.594793 C 162.99915,80.032473 177.77914,83.590276 189,91.69553 c 7.84701,5.668195 12.22985,7.526143 23,9.75004 19.49344,4.02512 27.81732,9.02434 28.65308,17.20867 0.63481,6.21642 -1.92382,10.82894 -7.65308,13.79646 -4.07833,2.11241 -5.43704,2.28494 -14.5,1.84128 -8.40757,-0.41159 -11.48004,-1.06647 -19.29427,-4.11247 -5.11185,-1.99262 -9.72435,-3.35713 -10.25,-3.03226 -2.70398,1.67115 0.33986,13.53283 4.97419,19.38416 1.72845,2.18234 8.24056,8.26932 14.47137,13.52663 6.23081,5.25731 12.94405,11.63207 14.91832,14.16613 7.48237,9.60395 5.447,20.78337 -4.25448,23.368 -8.18214,2.17986 -14.92938,-1.63667 -35.89114,-20.3016 -2.3793,-2.1186 -4.57988,-3.59813 -4.89016,-3.28785 -0.31028,0.31029 1.24035,2.95419 3.44584,5.87535 6.88873,9.12405 8.54609,13.25266 8.05356,20.06192 -0.37267,5.15208 -0.86195,6.36104 -3.54434,8.75776 -6.19277,5.53324 -17.25882,4.85967 -23.49861,-1.4303 -1.78215,-1.79649 -6.49556,-9.08962 -10.47423,-16.20695 -3.97867,-7.11734 -7.24117,-12.15874 -7.25,-11.20311 -0.009,0.95562 1.10895,6.06739 2.48395,11.35948 2.95388,11.36888 3.11213,15.67847 0.74845,20.38309 -5.67962,11.30457 -22.73833,10.35444 -27.81519,-1.54923 -1.38308,-3.24291 -3.84087,-16.70868 -4.96107,-27.18084 -0.36771,-3.4375 -0.96188,-6.24991 -1.32038,-6.24979 -0.35849,1.2e-4 -2.1148,4.70259 -3.90289,10.44994 -2.81915,9.06137 -3.72878,10.81408 -6.84652,13.19209 -4.891152,3.73066 -12.145172,3.8666 -16.012122,0.30007 -6.12574,-5.64984 -6.72441,-11.89691 -2.39028,-24.94231 1.65,-4.96637 3,-9.53694 3,-10.15682 0,-0.61988 -1.74189,-3.88514 -3.87086,-7.25613 -4.29414,-6.79929 -9.12914,-19.21486 -9.12914,-23.4423 0,-2.45374 -1.31556,-3.495 -12.75,-10.09151 -37.15691,-21.43577 -41.75337,-23.90338 -42.36489,-22.74364 -2.44964,4.64573 -3.38219,13.62187 -3.34432,32.1904 0.038,18.63293 0.23129,20.71771 2.82785,30.5 5.07065,19.10314 15.21996,36.67249 29.42337,50.93443 17.35853,17.43006 33.96568,26.65717 58.707992,32.61879 8.86809,2.13675 11.75447,2.36692 25.5,2.03342 9.28115,-0.22519 18.70973,-1.0546 23.5,-2.06724 z m -14.81445,-36.69371 c 1.8653,-1.75237 2.29511,-3.15932 2.21477,-7.25 -0.0548,-2.79163 -0.41135,-6.20069 -0.79229,-7.57569 -0.80935,-2.92138 -5.26359,-5.37218 -9.79344,-5.38851 -1.75198,-0.006 -2.96292,-0.37149 -2.69098,-0.81149 0.71129,-1.15089 7.14242,-0.98759 7.87639,0.2 0.33992,0.55 1.20605,1 1.92473,1 1.01759,0 0.88761,-1.49349 -0.58743,-6.75 -1.04177,-3.7125 -1.99385,-9.675 -2.11572,-13.25 l -0.22158,-6.5 3.56695,-0.29945 c 3.07519,-0.25817 3.74023,0.0865 4.82378,2.5 1.68329,3.74933 17.85521,32.38937 19.3935,34.34534 4.05876,5.16083 12.93958,6.7303 16.71577,2.95411 2.99092,-2.99092 2.73257,-10.45765 -0.52786,-15.2558 -2.78131,-4.09308 -5.42208,-5.14978 -11.43634,-4.57622 -5.16992,0.49303 -3.55322,-1.15476 1.84312,-1.87856 2.26659,-0.30402 4.12108,-0.7236 4.12108,-0.9324 0,-0.2088 -1.79911,-3.01534 -3.99802,-6.23674 -4.8748,-7.14158 -8.48889,-15.06144 -7.34576,-16.09739 0.46408,-0.42057 2.00121,-1.03625 3.41584,-1.36817 2.09764,-0.49219 3.29657,0.14627 6.5,3.46141 7.03675,7.28215 32.17657,27.88089 35.95316,29.45885 10.67684,4.46107 15.35953,-5.59051 7.07144,-15.17914 -3.16952,-3.66687 -3.698,-3.89584 -8.99189,-3.89584 -4.74008,0 -5.357,-0.19655 -3.92348,-1.25 0.93553,-0.6875 2.59915,-1.25 3.69693,-1.25 1.79946,0 1.71299,-0.29536 -0.87822,-3 -3.21501,-3.35575 -5.86114,-3.7116 -11.15424,-1.5 -4.45977,1.86341 -4.89774,1.87002 -3.38821,0.0512 0.66134,-0.79686 2.79093,-1.9731 4.73242,-2.61385 l 3.52998,-1.165 -6.64756,-5.99967 c -3.65616,-3.29981 -7.46956,-7.63608 -8.47422,-9.63615 -2.67373,-5.32285 -4.40571,-13.68362 -3.65908,-17.6635 0.54147,-2.88625 0.35668,-3.47298 -1.09378,-3.47298 -1.25404,0 -1.44009,-0.30522 -0.66097,-1.08434 0.59639,-0.59639 3.7388,-1.32504 6.98313,-1.61922 5.01759,-0.45498 7.01423,-0.081 13.36566,2.50342 10.25943,4.17462 11.07916,4.36107 19.34012,4.3991 10.7563,0.0495 14.62675,-2.38279 14.62675,-9.19185 0,-5.64553 -6.79789,-9.03687 -26,-12.97091 -10.54001,-2.15938 -14.36609,-3.76608 -21.47591,-9.018413 C 174.12654,87.740329 152.15606,83.929852 133,88.181226 c -4.125,0.915477 -8.625,1.899689 -10,2.187139 l -2.5,0.522637 2.75,-2.20814 c 3.18257,-2.555475 3.46111,-3.875914 1,-4.740578 C 120.58836,82.655839 91.763728,59.52601 75.499998,44.82369 c -9.37269,-8.472864 -9.15714,-8.455955 -17.67887,-1.386818 -14.57849,12.093497 -27.2166,29.274119 -34.24605,46.555135 -0.86629,2.129668 -1.57508,3.994695 -1.57508,4.144504 0,0.149808 4.6125,2.876297 10.25,6.058869 5.6375,3.18257 14.525,8.32571 19.75,11.42921 5.225,3.1035 12.49725,7.31328 16.16055,9.35506 l 6.66056,3.71233 1.1969,-3.78605 c 1.48029,-4.68241 5.70612,-11.06803 8.21206,-12.40917 1.78961,-0.95777 1.78402,-0.82481 -0.12245,2.91217 -6.57492,12.88791 -4.22468,29.64971 6.40211,45.65965 3.22756,4.86252 3.55493,5.93736 2.97871,9.77984 l -0.64736,4.31692 h 4.05219 c 2.2287,0 4.530292,0.47811 5.114652,1.06247 0.74995,0.74995 -0.52064,0.93118 -4.319682,0.61613 l -5.38214,-0.44633 -1.75866,4.36114 c -0.96726,2.39863 -1.984,6.83614 -2.25942,9.86114 -0.41963,4.60881 -0.1477,5.9456 1.67819,8.25 4.78912,6.04423 11.720762,2.2794 14.538742,-7.89653 0.89154,-3.21941 2.82243,-9.34097 4.29086,-13.60347 2.5729,-7.4685 2.78467,-7.75 5.83005,-7.75 1.90159,0 3.39189,0.60386 3.742,1.51625 0.32001,0.83394 1.74159,9.41627 3.15906,19.07185 1.41747,9.65558 3.01801,18.76077 3.55676,20.23375 2.46269,6.73317 11.77381,9.53956 16.60187,5.00384 z m -15.24442,-29.36572 c 1.06762,-0.80299 3.54262,-1.40777 5.5,-1.34397 2.02214,0.0659 2.69527,0.31319 1.55887,0.57267 -1.1,0.25117 -3.575,0.85595 -5.5,1.34396 -3.19846,0.81086 -3.33276,0.76152 -1.55887,-0.57266 z m -25.63637,-0.98854 c -0.29071,-0.29072 -2.503212,-0.91641 -4.916662,-1.39044 l -4.3881,-0.86186 4.12756,-0.10956 c 2.56247,-0.068 4.599592,0.4592 5.372442,1.39043 1.15355,1.38994 0.99787,2.16454 -0.19524,0.97143 z m 58.02523,-2.76575 c 2.01608,-2.43049 7.74092,-4.0534 9.88869,-2.80331 1.49158,0.86817 1.24461,1.04176 -1.51834,1.06722 -1.81481,0.0167 -4.73981,0.77495 -6.5,1.68494 -2.86833,1.48288 -3.06236,1.48819 -1.87035,0.0512 z m -57.23641,-34.85709 c 1.25688,-2.03369 10.67685,-5.8629 15.94649,-6.48225 5.87158,-0.69008 27.81823,1.29666 30.45993,2.75742 0.825,0.4562 -6.375,0.56401 -16,0.23958 -16.90255,-0.56973 -17.72967,-0.50517 -24.22719,1.891 -3.69996,1.36448 -6.48061,2.08189 -6.17923,1.59425 z m 48.38655,-12.19266 c -9.01712,-3.18357 -14.82231,-6.78433 -20.82903,-12.91955 -6.94656,-7.09518 -9.65584,-11.3745 -3.55094,-5.60874 9.157,8.6483 20.84239,15.37696 32.89984,18.94432 5.93857,1.757 5.95905,1.77574 2,1.83052 -2.2,0.0304 -6.93394,-0.98051 -10.51987,-2.24655 z m 55.13818,-15.34691 c -0.0651,-2.30504 0.33169,-4.4691 0.88169,-4.80902 1.12899,-0.69776 1.12899,1.56312 0,6 -0.72105,2.83368 -0.76993,2.76766 -0.88169,-1.19098 z M 99.675318,91.438398 c -3.75357,-2.201372 -6.6116,-4.215563 -6.35119,-4.475981 0.63164,-0.631641 12.345632,5.31411 13.203162,6.701619 1.35231,2.188085 -0.16827,1.694173 -6.851972,-2.225638 z"
       id="path1" />
  </g>
</svg>